<?xml version="1.0" encoding="UTF-8"?>
<svg version="1.1" xmlns="http://www.w3.org/2000/svg" width="500" height="500">
<path d="M0 0 C165 0 330 0 500 0 C500 165 500 330 500 500 C335 500 170 500 0 500 C0 335 0 170 0 0 Z " fill="#FEFEFE" transform="translate(0,0)"/>
<path d="M0 0 C6.02176106 3.56058486 9.41161062 8.80912715 11.5625 15.375 C12.49398094 22.47754213 10.47406445 27.43662007 6.5625 33.375 C4.09839714 36.29094261 1.41782135 38.84570061 -1.4375 41.375 C-2.14777344 42.00535156 -2.85804688 42.63570313 -3.58984375 43.28515625 C-6.36086596 45.7156059 -9.128311 48.12614056 -12 50.4375 C-13.71209304 52.30603867 -13.71209304 52.30603867 -13.26367188 54.8503418 C-12.14067613 59.64132569 -10.41789118 64.11829758 -8.65625 68.70703125 C-7.88905556 70.7427378 -7.12213708 72.77854837 -6.35546875 74.81445312 C-5.14798975 78.00193275 -3.93726896 81.18810496 -2.72119141 84.37231445 C-1.54457331 87.45968194 -0.38096894 90.55171977 0.78125 93.64453125 C1.14480591 94.5854512 1.50836182 95.52637115 1.88293457 96.49580383 C6.00727636 107.5198658 6.00727636 107.5198658 5.5625 113.375 C4.01123047 116.15673828 4.01123047 116.15673828 1.6796875 118.4453125 C0.84179688 119.27804687 0.00390625 120.11078125 -0.859375 120.96875 C-2.19742188 122.22171875 -2.19742188 122.22171875 -3.5625 123.5 C-4.43132812 124.37398438 -5.30015625 125.24796875 -6.1953125 126.1484375 C-11.03131247 130.83699845 -11.03131247 130.83699845 -13.4375 132.375 C-16.43195259 132.32070884 -17.83617648 131.92186403 -20.05493164 129.90405273 C-20.54340576 129.23317627 -21.03187988 128.5622998 -21.53515625 127.87109375 C-22.1295752 127.05753418 -22.72399414 126.24397461 -23.33642578 125.40576172 C-27.40131557 119.54223141 -31.41522381 113.64856468 -35.36499023 107.70678711 C-36.89036071 105.41441548 -38.42437083 103.12798819 -39.95898438 100.84179688 C-40.93020907 99.38576444 -41.90093117 97.9293966 -42.87109375 96.47265625 C-43.33035751 95.78937759 -43.78962128 95.10609894 -44.26280212 94.40211487 C-47.4375 89.60443232 -47.4375 89.60443232 -47.4375 87.375 C-48.72993468 88.4991176 -50.02142075 89.62432592 -51.3125 90.75 C-52.03179687 91.37648438 -52.75109375 92.00296875 -53.4921875 92.6484375 C-54.8451598 93.84926834 -56.1583345 95.0958345 -57.4375 96.375 C-57.3003518 98.12838694 -57.16020405 99.88160442 -57.00292969 101.63330078 C-56.58375529 108.7736646 -57.87322679 113.22862353 -62.55078125 118.76171875 C-64.23086646 120.5387729 -65.94408099 122.28503705 -67.6875 124 C-68.54657959 124.84747803 -69.40565918 125.69495605 -70.29077148 126.56811523 C-75.02449355 130.94474713 -75.02449355 130.94474713 -77.4375 132.375 C-80.9542861 132.17599159 -82.06602324 131.74311193 -84.59375 129.23828125 C-86.62907504 126.07749045 -87.77206055 123.13362697 -88.9375 119.5625 C-89.72921209 117.15259258 -90.56492618 114.75682215 -91.4375 112.375 C-91.6430249 111.70009521 -91.8485498 111.02519043 -92.06030273 110.32983398 C-93.4066666 106.75119631 -94.63671624 104.85802842 -97.95947266 102.85375977 C-101.10256244 101.45385987 -104.26394159 100.23112943 -107.5 99.0625 C-109.68079793 98.239437 -111.85930349 97.41026724 -114.03515625 96.57421875 C-114.99945557 96.22190186 -115.96375488 95.86958496 -116.95727539 95.5065918 C-119.46260748 94.36354482 -120.87054412 93.63311475 -122.4375 91.375 C-122.98282363 88.18295676 -122.72034411 86.81544808 -120.96313477 84.07910156 C-105.77324821 67.21845204 -105.77324821 67.21845204 -98.671875 66.19140625 C-96.45986258 66.09989955 -94.32747533 66.18234149 -92.11962891 66.3293457 C-88.49371747 66.5639635 -86.74024314 66.56431871 -83.6015625 64.6015625 C-81.66704557 62.61274334 -79.98319549 60.67520447 -78.4375 58.375 C-82.7413508 54.79246199 -87.30125552 51.6950987 -91.94921875 48.5859375 C-92.75865433 48.04143951 -93.5680899 47.49694153 -94.40205383 46.9359436 C-97.85023816 44.6164651 -101.30183711 42.30208881 -104.75317383 39.98730469 C-107.27807215 38.29281843 -109.80118919 36.59570448 -112.32421875 34.8984375 C-113.10754074 34.37446381 -113.89086273 33.85049011 -114.69792175 33.31063843 C-115.42240005 32.82318146 -116.14687836 32.33572449 -116.89331055 31.83349609 C-117.53108932 31.40587982 -118.1688681 30.97826355 -118.82597351 30.53768921 C-121.35208282 28.7151439 -122.34378989 27.77795347 -123.0625 24.6875 C-122.23100822 20.28059357 -120.35929603 19.15699139 -116.921875 16.45703125 C-114.99355753 14.84100419 -113.38448029 13.29551712 -111.703125 11.44921875 C-111.23430908 10.94221436 -110.76549316 10.43520996 -110.2824707 9.9128418 C-108.92617082 8.43091067 -107.58579084 6.93445723 -106.24609375 5.4375 C-103.4375 3.375 -103.4375 3.375 -100.47949219 3.49169922 C-95.10646314 4.45996397 -90.05093897 6.53595311 -84.95703125 8.4453125 C-82.71947257 9.26712185 -80.48184016 10.08873049 -78.24414062 10.91015625 C-74.73371672 12.20804941 -71.22464202 13.50943805 -67.71704102 14.81494141 C-64.32119513 16.07596427 -60.92072863 17.32380994 -57.51953125 18.5703125 C-56.46844681 18.96606476 -55.41736237 19.36181702 -54.33442688 19.76956177 C-53.35628525 20.12678314 -52.37814362 20.48400452 -51.37036133 20.85205078 C-50.51211258 21.17102325 -49.65386383 21.48999573 -48.76960754 21.81863403 C-46.2047209 22.43053362 -44.88419112 22.29304863 -42.4375 21.375 C-40.80355225 20.16577881 -40.80355225 20.16577881 -39.34375 18.609375 C-38.78816406 18.04863281 -38.23257813 17.48789062 -37.66015625 16.91015625 C-37.09167969 16.32105469 -36.52320312 15.73195313 -35.9375 15.125 C-35.36902344 14.55136719 -34.80054687 13.97773438 -34.21484375 13.38671875 C-31.74268412 10.86867217 -29.42335414 8.35723659 -27.22265625 5.59375 C-20.78918278 -2.40233956 -9.19855082 -4.2306312 0 0 Z " fill="#070707" transform="translate(153.4375,336.625)"/>
<path d="M0 0 C5.17714908 3.03078936 8.16874981 7.85227238 11 13 C12.70131286 19.80525145 11.79669054 24.69678872 8.50390625 30.78515625 C2.70489126 39.16419039 -5.63358408 45.97536446 -13.375 52.5 C-12.15278874 58.74767809 -10.40586869 64.56285814 -8.125 70.5 C-7.49767627 72.16628239 -6.87139561 73.83295781 -6.24609375 75.5 C-5.93269043 76.33273438 -5.61928711 77.16546875 -5.29638672 78.0234375 C-3.61833793 82.533805 -2.03309653 87.07651476 -0.44775391 91.62011719 C1.26424833 96.51721275 3.0686111 101.372308 4.9609375 106.203125 C5.7353053 108.88152657 5.92766169 110.71705138 5.625 113.5 C3.02004256 117.1771786 -0.29953058 120.21207275 -3.5 123.375 C-4.3559375 124.26703125 -5.211875 125.1590625 -6.09375 126.078125 C-6.93164062 126.91601562 -7.76953125 127.75390625 -8.6328125 128.6171875 C-9.77967529 129.77130127 -9.77967529 129.77130127 -10.94970703 130.94873047 C-13.375 132.5 -13.375 132.5 -16.50585938 132.44213867 C-19.56128522 131.43882959 -20.37187186 130.97321089 -22.0234375 128.30859375 C-22.46397461 127.62216797 -22.90451172 126.93574219 -23.35839844 126.22851562 C-23.81762695 125.47248047 -24.27685547 124.71644531 -24.75 123.9375 C-25.78256865 122.31038141 -26.81650049 120.68412737 -27.8515625 119.05859375 C-28.4074707 118.17413574 -28.96337891 117.28967773 -29.53613281 116.37841797 C-31.54715653 113.23051972 -33.62072126 110.13100793 -35.7109375 107.03515625 C-36.4426416 105.95113525 -37.1743457 104.86711426 -37.92822266 103.75024414 C-39.38233191 101.59881533 -40.83771743 99.44824853 -42.29443359 97.29858398 C-42.95523926 96.31317627 -43.61604492 95.32776855 -44.296875 94.3125 C-44.89081055 93.43207031 -45.48474609 92.55164063 -46.09667969 91.64453125 C-47.375 89.5 -47.375 89.5 -47.375 87.5 C-48.66743468 88.6241176 -49.95892075 89.74932592 -51.25 90.875 C-51.96929687 91.50148438 -52.68859375 92.12796875 -53.4296875 92.7734375 C-54.7826598 93.97426834 -56.0958345 95.2208345 -57.375 96.5 C-57.46444648 98.31805162 -57.54352987 100.1377629 -57.5480957 101.95800781 C-57.619495 112.6993663 -57.619495 112.6993663 -61.1875 116.75 C-62.56967312 118.01508821 -63.96784616 119.26275759 -65.375 120.5 C-66.35870865 121.54953936 -67.3318877 122.60900336 -68.296875 123.67578125 C-69.34293571 124.80544208 -70.38981328 125.93434703 -71.4375 127.0625 C-71.93161377 127.61260742 -72.42572754 128.16271484 -72.93481445 128.72949219 C-75.49177608 131.37150251 -76.82900037 132.47387241 -80.55859375 132.65234375 C-84.14984451 131.18296931 -84.80703357 130.01473821 -86.375 126.5 C-87.23392993 124.24631864 -88.04377153 121.97352205 -88.8125 119.6875 C-89.62325836 117.27663108 -90.47995717 114.88086463 -91.375 112.5 C-91.57544922 111.82509521 -91.77589844 111.15019043 -91.98242188 110.45483398 C-93.33212402 106.7927745 -94.57597359 104.96189197 -98.0065918 102.97875977 C-101.30216613 101.57801963 -104.61472506 100.35450902 -108 99.1875 C-110.28680274 98.36623732 -112.57082458 97.53717678 -114.8515625 96.69921875 C-115.86299316 96.34690186 -116.87442383 95.99458496 -117.91650391 95.6315918 C-120.375 94.5 -120.375 94.5 -122.375 91.5 C-122.83591259 88.31669084 -122.65205413 86.93143187 -120.90063477 84.20410156 C-105.73108954 67.36603075 -105.73108954 67.36603075 -98.57421875 66.28125 C-95.67913746 66.14233355 -92.84593724 66.3266827 -89.95703125 66.51953125 C-86.38196389 66.80191322 -86.38196389 66.80191322 -83.76171875 64.94921875 C-82.07479684 63.20820716 -80.65629187 61.55328363 -79.375 59.5 C-80.51496402 56.08010793 -81.11456618 55.72297472 -84.02099609 53.8203125 C-84.79204681 53.30968262 -85.56309753 52.79905273 -86.35751343 52.27294922 C-87.19601837 51.72912598 -88.03452332 51.18530273 -88.8984375 50.625 C-89.75555328 50.0592627 -90.61266907 49.49352539 -91.49575806 48.91064453 C-94.24219812 47.09939999 -96.99561489 45.29913479 -99.75 43.5 C-102.49617851 41.69932172 -105.24078428 39.89633842 -107.9828186 38.08935547 C-109.6907559 36.96454644 -111.40127079 35.84363953 -113.11459351 34.72705078 C-113.89194855 34.2164209 -114.66930359 33.70579102 -115.47021484 33.1796875 C-116.15336761 32.73351074 -116.83652039 32.28733398 -117.54037476 31.82763672 C-122.20306738 28.45345338 -122.20306738 28.45345338 -122.80688477 25.10498047 C-121.92136372 19.76382185 -117.01379014 16.30174216 -113.3125 12.625 C-112.46494141 11.73296875 -111.61738281 10.8409375 -110.74414062 9.921875 C-109.49213867 8.66503906 -109.49213867 8.66503906 -108.21484375 7.3828125 C-107.45550537 6.61340332 -106.69616699 5.84399414 -105.91381836 5.05126953 C-103.375 3.5 -103.375 3.5 -100.06298828 3.58447266 C-96.10586443 4.56681176 -92.32691848 5.80510668 -88.52734375 7.265625 C-87.79359024 7.54090027 -87.05983673 7.81617554 -86.30384827 8.09979248 C-83.97082567 8.97654144 -81.64159844 9.86288573 -79.3125 10.75 C-77.77694963 11.33010762 -76.24114403 11.90954011 -74.70507812 12.48828125 C-73.95110748 12.77239868 -73.19713684 13.05651611 -72.4203186 13.34924316 C-69.44804816 14.46828897 -66.47535141 15.58618345 -63.50164795 16.70141602 C-62.10271301 17.22673429 -60.70445725 17.75386543 -59.3069458 18.28295898 C-57.39650036 19.00411084 -55.48154665 19.71328554 -53.56640625 20.421875 C-52.48689697 20.8250293 -51.4073877 21.22818359 -50.29516602 21.64355469 C-47.44057544 22.48076761 -45.32476366 22.81632165 -42.375 22.5 C-40.22006729 20.73206434 -40.22006729 20.73206434 -38.3125 18.25 C-34.70726988 14.022762 -31.02418346 9.95399973 -27.125 6 C-26.62991943 5.48405273 -26.13483887 4.96810547 -25.62475586 4.43652344 C-18.81006107 -2.44802455 -8.98369541 -3.91197526 0 0 Z " fill="#070707" transform="translate(153.375,15.5)"/>
<path d="M0 0 C5.2216357 3.00378631 9.83744292 7.76232875 11.75 13.5 C12.42254731 23.18726794 11.76872389 29.4339265 5.26171875 36.9375 C2.92204397 39.3557685 0.37660783 41.51189335 -2.1875 43.6875 C-4.88070504 46.05425594 -7.34327495 48.61032582 -9.8046875 51.21484375 C-11.25 52.5 -11.25 52.5 -13.25 52.5 C-9.76692448 62.43018002 -6.24299448 72.34551391 -2.6875 82.25 C-2.30158691 83.32733398 -1.91567383 84.40466797 -1.51806641 85.51464844 C0.83597361 92.05688864 3.27941139 98.53802644 5.97265625 104.94921875 C6.91375146 108.03733519 7.05546895 110.27752833 6.75 113.5 C5.08520508 115.92529297 5.08520508 115.92529297 2.76953125 118.2421875 C1.93486328 119.08007812 1.10019531 119.91796875 0.24023438 120.78125 C-0.64341797 121.6371875 -1.52707031 122.493125 -2.4375 123.375 C-3.30181641 124.25414062 -4.16613281 125.13328125 -5.05664062 126.0390625 C-11.43317119 132.33252715 -11.43317119 132.33252715 -14.8137207 133.02563477 C-18.22467982 132.28970983 -18.94486185 130.90937215 -20.875 128.03515625 C-21.56078125 127.02984863 -22.2465625 126.02454102 -22.953125 124.98876953 C-23.7191872 123.82613431 -24.48478727 122.6631945 -25.25 121.5 C-26.11867615 120.20742019 -26.98851474 118.91562102 -27.859375 117.62451172 C-30.20427245 114.13383108 -32.52047065 110.62514324 -34.82568359 107.1081543 C-36.27038443 104.90643418 -37.72290815 102.71000549 -39.17578125 100.51367188 C-40.09682803 99.11229049 -41.01741864 97.71060917 -41.9375 96.30859375 C-42.37175293 95.65346298 -42.80600586 94.99833221 -43.25341797 94.323349 C-46.25 89.72909717 -46.25 89.72909717 -46.25 87.5 C-47.54243468 88.6241176 -48.83392075 89.74932592 -50.125 90.875 C-50.84429687 91.50148438 -51.56359375 92.12796875 -52.3046875 92.7734375 C-53.6576598 93.97426834 -54.9708345 95.2208345 -56.25 96.5 C-56.33944648 98.31805162 -56.41852987 100.1377629 -56.4230957 101.95800781 C-56.494495 112.6993663 -56.494495 112.6993663 -60.0625 116.75 C-61.44194556 118.01806176 -62.84061856 119.26529572 -64.25 120.5 C-65.2448491 121.53816272 -66.22979324 122.58586795 -67.20703125 123.640625 C-68.2622246 124.761167 -69.3182167 125.88095736 -70.375 127 C-70.87749268 127.54172852 -71.37998535 128.08345703 -71.89770508 128.64160156 C-74.16518123 130.95418122 -75.70894327 132.39273511 -78.9296875 133.03125 C-81.77504917 132.37978672 -82.57400133 131.88939752 -84.25 129.5 C-85.14412296 127.34457507 -85.94666226 125.15029731 -86.6875 122.9375 C-87.12703471 121.67818652 -87.56714296 120.41907307 -88.0078125 119.16015625 C-88.75866218 116.94774698 -89.48892997 114.72799519 -90.1796875 112.49609375 C-91.5835062 108.32811876 -92.63404508 105.33126135 -96.625 103.1875 C-98.14909976 102.57900819 -99.69481032 102.02395364 -101.25 101.5 C-102.39082031 101.09265625 -103.53164062 100.6853125 -104.70703125 100.265625 C-107.12423008 99.4050516 -109.54847094 98.56390999 -111.98046875 97.74609375 C-117.84128144 95.51240289 -117.84128144 95.51240289 -120.25 93.5 C-121.5546875 90.3984375 -121.5546875 90.3984375 -121.25 86.5 C-119.08413378 82.91214786 -116.33851245 80.06941996 -113.375 77.125 C-112.15707764 75.89934326 -112.15707764 75.89934326 -110.91455078 74.64892578 C-105.51861216 69.62044129 -101.56786874 67.11397838 -94.125 67.375 C-93.41819092 67.41633057 -92.71138184 67.45766113 -91.9831543 67.50024414 C-88.39761023 67.69799362 -86.53953461 67.67403937 -83.41015625 65.79296875 C-79.58673213 62.2411672 -79.58673213 62.2411672 -78.25 57.5 C-80.6977075 55.7139594 -83.14979149 54.05103529 -85.6953125 52.4140625 C-86.45794403 51.91587006 -87.22057556 51.41767761 -88.00631714 50.90438843 C-90.45832965 49.30467588 -92.91650049 47.71472089 -95.375 46.125 C-97.01083685 45.06054129 -98.64625895 43.99544489 -100.28125 42.9296875 C-103.30356601 40.96033419 -106.32854827 38.99520499 -109.35595703 37.03369141 C-110.01823303 36.60179504 -110.68050903 36.16989868 -111.362854 35.72491455 C-112.5781819 34.93606577 -113.79867303 34.15508693 -115.02532959 33.38397217 C-117.84939465 31.58099818 -119.35266307 30.34600539 -121.25 27.5 C-121.71517893 24.31066346 -121.5592008 22.95797524 -119.74047852 20.26416016 C-117.45643591 17.85731956 -115.15419356 15.47592009 -112.8125 13.125 C-112.02939453 12.28066406 -111.24628906 11.43632812 -110.43945312 10.56640625 C-109.26479492 9.37724609 -109.26479492 9.37724609 -108.06640625 8.1640625 C-107.35943604 7.43654785 -106.65246582 6.7090332 -105.92407227 5.95947266 C-101.84100582 3.73098994 -98.67465168 4.45261856 -94.25 5.5 C-90.36015343 6.68334155 -86.5840419 8.10412454 -82.79296875 9.5703125 C-81.72758377 9.97079803 -80.66219879 10.37128357 -79.56452942 10.78390503 C-75.03452446 12.48697937 -70.51383134 14.2141772 -65.99243164 15.93994141 C-62.67920746 17.2005643 -59.36132661 18.44827957 -56.04296875 19.6953125 C-54.50856392 20.28894089 -54.50856392 20.28894089 -52.94316101 20.89456177 C-51.99149551 21.25178314 -51.03983002 21.60900452 -50.05932617 21.97705078 C-49.22487473 22.29602325 -48.39042328 22.61499573 -47.53068542 22.94363403 C-44.98782364 23.56395709 -43.67879035 23.41464025 -41.25 22.5 C-39.51379214 21.16401403 -39.51379214 21.16401403 -37.9375 19.4375 C-37.02677734 18.49003906 -37.02677734 18.49003906 -36.09765625 17.5234375 C-34.31365765 15.56971387 -32.59044341 13.57645445 -30.875 11.5625 C-22.55263686 1.92211555 -13.24061752 -5.88183988 0 0 Z " fill="#080808" transform="translate(152.25,174.5)"/>
<path d="M0 0 C33.65729404 -0.06780929 67.31456261 -0.12152352 100.97190965 -0.15319599 C104.94481488 -0.15694814 108.91771997 -0.1608311 112.890625 -0.16479492 C113.68156405 -0.16558185 114.4725031 -0.16636878 115.28741001 -0.16717956 C128.09680022 -0.18023605 140.90615008 -0.20389123 153.71551634 -0.23145839 C166.85758702 -0.25950583 179.99963654 -0.27617486 193.14173591 -0.28226548 C201.25213801 -0.2863833 209.36242604 -0.29939249 217.47279303 -0.3237494 C223.69020758 -0.34147111 229.90753503 -0.34336729 236.12497139 -0.33932304 C238.67674907 -0.34014981 241.22853098 -0.34613622 243.78028297 -0.35761642 C247.2596981 -0.37250509 250.738622 -0.36896643 254.2180481 -0.36076355 C255.73848447 -0.37387134 255.73848447 -0.37387134 257.28963673 -0.38724393 C264.22992685 -0.34290883 268.49617247 0.77437553 273.8125 5.5 C277.19905183 9.37034495 277.34131757 12.78067078 277.28515625 17.71484375 C276.72881312 22.17320993 274.20582561 24.94033507 270.9375 27.8125 C267.74384943 29.76989874 265.13406477 30.12476897 261.47663593 30.12304783 C260.54407956 30.12503888 259.6115232 30.12702993 258.65070754 30.12908131 C257.62445382 30.12616847 256.5982001 30.12325563 255.54084778 30.12025452 C253.90766547 30.12153615 253.90766547 30.12153615 252.24148959 30.12284368 C248.57479495 30.1244974 244.90814554 30.11897884 241.24145508 30.11352539 C238.62035625 30.11324347 235.99925735 30.11340135 233.37815857 30.1139679 C227.72566569 30.11449271 222.07318433 30.11135033 216.42069435 30.10573006 C208.24810378 30.09760933 200.07551879 30.09499925 191.90292462 30.09374207 C178.64402015 30.09155245 165.38512183 30.08489481 152.1262207 30.07543945 C139.24503612 30.066263 126.36385321 30.05918331 113.48266602 30.05493164 C112.29203704 30.05453756 112.29203704 30.05453756 111.07735495 30.05413551 C107.09540391 30.05283049 103.11345285 30.05156678 99.13150179 30.05032361 C66.0876632 30.03995381 33.04383286 30.02206308 0 30 C0 20.1 0 10.2 0 0 Z " fill="#000000" transform="translate(182,223)"/>
<path d="M0 0 C34.02242738 -0.13563922 68.0447539 -0.24305802 102.06739113 -0.30639198 C106.08407175 -0.31389622 110.10075183 -0.32166215 114.11743164 -0.32958984 C114.91708023 -0.33116371 115.71672881 -0.33273757 116.54060917 -0.33435912 C129.48841759 -0.36046698 142.43606617 -0.40777437 155.38377977 -0.46291678 C168.66935939 -0.5190262 181.9548553 -0.55235273 195.24054855 -0.56453097 C203.43861695 -0.57276372 211.63623356 -0.59876527 219.83416288 -0.6474988 C225.45582358 -0.67921506 231.07725073 -0.68880056 236.69899441 -0.68100826 C239.94266653 -0.67716503 243.18538282 -0.68633431 246.42895126 -0.71523285 C249.94789972 -0.7450506 253.46490942 -0.7379218 256.98390198 -0.7215271 C258.00628623 -0.73900415 259.02867048 -0.7564812 260.08203608 -0.77448785 C266.00766007 -0.69977527 269.33396086 0.18529611 273.6607222 4.32224119 C276.86674044 8.33852918 277.44461441 11.72530155 277.3125 16.75390625 C276.81527054 20.32774299 275.36215553 22.32703454 273 25 C268.50991329 28.39047363 265.12229225 30.12570995 259.50787067 30.12304783 C258.5822811 30.12503888 257.65669152 30.12702993 256.70305377 30.12908131 C255.68458195 30.12616847 254.66611012 30.12325563 253.61677551 30.12025452 C252.53615442 30.12110894 251.45553332 30.12196337 250.34216613 30.12284368 C246.70311043 30.12449735 243.06410032 30.11897892 239.42504883 30.11352539 C236.82365419 30.11324347 234.22225946 30.11340135 231.62086487 30.1139679 C226.0109338 30.1144927 220.40101434 30.11135039 214.7910862 30.10573006 C206.6800338 30.09760924 198.56898703 30.09499924 190.457931 30.09374207 C177.29885511 30.09155246 164.13978542 30.08489486 150.98071289 30.07543945 C138.19653352 30.06626297 125.41235583 30.05918329 112.62817383 30.05493164 C111.84039517 30.05466892 111.0526165 30.05440619 110.24096576 30.05413551 C106.28898286 30.05283049 102.33699995 30.05156678 98.38501704 30.05032361 C65.59000666 30.03995385 32.7950046 30.02206316 0 30 C0 20.1 0 10.2 0 0 Z " fill="#030303" transform="translate(182,384)"/>
<path d="M0 0 C33.9120752 -0.0904117 67.82410547 -0.16203096 101.73627419 -0.20426132 C105.73922206 -0.20926419 109.74216968 -0.21444147 113.74511719 -0.21972656 C114.54203747 -0.2207758 115.33895775 -0.22182505 116.16002713 -0.22290608 C129.06643163 -0.24031493 141.97276492 -0.27185524 154.87912716 -0.30861118 C168.120637 -0.34600729 181.36210952 -0.36823303 194.60367 -0.37635398 C202.77552905 -0.38184453 210.94718682 -0.39919057 219.11898391 -0.43166587 C225.38341718 -0.45529416 231.64769676 -0.4578232 237.9121685 -0.45243073 C240.48330234 -0.45353312 243.05444364 -0.46151553 245.62553215 -0.4768219 C249.13134402 -0.49667296 252.63628915 -0.49195607 256.14212036 -0.48101807 C257.16352651 -0.49266943 258.18493265 -0.5043208 259.2372905 -0.51632524 C265.15379456 -0.46630449 268.47274271 0.09720215 273 4 C276.53997368 8.02824591 277.33309375 11.57184368 277.1953125 16.9453125 C276.86628655 20.40666545 276.1120111 22.20469119 274 25 C267.11112148 29.639683 260.92956733 30.72026572 252.7749939 30.60127258 C251.68839182 30.60554471 250.60178975 30.60981683 249.48226035 30.61421841 C245.86453598 30.6224122 242.2479875 30.59502137 238.63037109 30.56762695 C236.02794421 30.56621571 233.42551533 30.56700994 230.8230896 30.56983948 C225.23226267 30.57245287 219.64172898 30.55685371 214.0509758 30.52865028 C205.96787963 30.48790054 197.8849243 30.47498139 189.80173655 30.46871033 C176.6852897 30.45778507 163.56899891 30.42455907 150.45263672 30.37719727 C137.7163165 30.33125576 124.98003877 30.29588638 112.24365234 30.2746582 C111.45771275 30.27334459 110.67177315 30.27203097 109.8620172 30.27067754 C105.918929 30.26415204 101.9758405 30.25783358 98.0327518 30.25161803 C65.35504956 30.19984012 32.67755684 30.11044081 0 30 C0 20.1 0 10.2 0 0 Z " fill="#010101" transform="translate(182,61)"/>
<path d="M0 0 C3.03522895 1.63435405 5.28352297 3.055553 7.375 5.8125 C8.35285878 9.23500572 8.53535985 11.43093433 8 15 C4.63851039 20.19038517 -0.18602501 24.16867735 -4.875 28.125 C-8.1335528 31.00019365 -11.11186828 34.14113084 -14.1171875 37.27734375 C-16 39 -16 39 -18 39 C-17.51543373 46.40359975 -15.62028259 52.52180147 -12.96484375 59.421875 C-12.56672989 60.48488831 -12.16861603 61.54790161 -11.75843811 62.64312744 C-10.49455511 66.01585771 -9.21741521 69.38332414 -7.9375 72.75 C-6.65480694 76.13122989 -5.37530288 79.51349465 -4.10585022 82.89971924 C-3.31807568 85.00065111 -2.52265713 87.09873646 -1.71873474 89.19354248 C-1.18301598 90.62092743 -1.18301598 90.62092743 -0.63647461 92.07714844 C-0.31972275 92.90937927 -0.00297089 93.74161011 0.32337952 94.59906006 C1.05952789 97.21123051 1.23061208 99.29934147 1 102 C-0.53125 104.01953125 -0.53125 104.01953125 -2.5 105.8125 C-3.1496875 106.41707031 -3.799375 107.02164063 -4.46875 107.64453125 C-4.9740625 108.09183594 -5.479375 108.53914063 -6 109 C-9.49640151 107.83453283 -9.8179603 107.16325337 -11.70800781 104.13867188 C-12.22574768 103.32112427 -12.74348755 102.50357666 -13.2769165 101.66125488 C-13.83006531 100.77272827 -14.38321411 99.88420166 -14.953125 98.96875 C-16.14110326 97.10754683 -17.32993204 95.2468863 -18.51953125 93.38671875 C-20.38980467 90.4429428 -22.25292458 87.4953196 -24.10107422 84.53759766 C-25.88613487 81.68901566 -27.69848832 78.85944356 -29.515625 76.03125 C-30.06067688 75.14272339 -30.60572876 74.25419678 -31.16729736 73.33874512 C-34.3904871 68.34251665 -34.3904871 68.34251665 -39.61865234 65.73291016 C-45.49528027 66.19710012 -48.36725951 69.8412695 -52.375 73.875 C-53.19137939 74.68622314 -54.00775879 75.49744629 -54.84887695 76.33325195 C-59.88369769 81.73625736 -62.40767356 85.73234026 -62.1875 93.1875 C-62.11110087 94.58603285 -62.03306324 95.98447748 -61.953125 97.3828125 C-62.00634292 101.48946175 -62.5741156 102.71056914 -65.4375 105.5625 C-68.47012987 108 -68.47012987 108 -71 108 C-71.48919922 106.71416016 -71.48919922 106.71416016 -71.98828125 105.40234375 C-72.42527344 104.25894531 -72.86226562 103.11554688 -73.3125 101.9375 C-73.74175781 100.81214844 -74.17101562 99.68679688 -74.61328125 98.52734375 C-75.07089844 97.36332031 -75.52851562 96.19929688 -76 95 C-76.3403125 93.7934375 -76.680625 92.586875 -77.03125 91.34375 C-79.95663414 86.37524043 -83.90127126 85.40039077 -89.1875 83.5625 C-90.12787109 83.21251953 -91.06824219 82.86253906 -92.03710938 82.50195312 C-94.35067129 81.64464338 -96.67023132 80.81199992 -99 80 C-99 76.59028316 -98.62423758 75.9219175 -96.5 73.375 C-92.71156958 69.64080069 -89.14222963 69.5343934 -84.0625 69.5 C-77.30920239 69.43590943 -77.30920239 69.43590943 -71.625 66.0625 C-70.39639345 64.72669959 -69.18985271 63.37043327 -68 62 C-67.12214844 61.18273437 -66.24429688 60.36546875 -65.33984375 59.5234375 C-59.18452293 53.8463156 -59.18452293 53.8463156 -57 46 C-57.47749191 45.68315247 -57.95498383 45.36630493 -58.44694519 45.03985596 C-63.42915342 41.73316542 -68.40916865 38.42319189 -73.38793945 35.11132812 C-75.24480377 33.87676516 -77.10222029 32.6430323 -78.96020508 31.41015625 C-81.63509387 29.63500928 -84.30796403 27.85685857 -86.98046875 26.078125 C-87.80773972 25.53005188 -88.63501068 24.98197876 -89.48735046 24.41729736 C-93.46889819 21.76318911 -97.32459062 19.07527634 -101 16 C-99.42705864 12.13914394 -97.28856993 9.55777661 -94 7 C-87.54583367 7.23594739 -81.80953639 9.76513406 -75.84375 12.0703125 C-73.66555032 12.89241936 -71.48715899 13.7140186 -69.30859375 14.53515625 C-65.89610899 15.83039517 -62.48567688 17.1305048 -59.07861328 18.43994141 C-55.77628354 19.7057472 -52.4669984 20.95172371 -49.15625 22.1953125 C-48.14252319 22.59106476 -47.12879639 22.98681702 -46.08435059 23.39456177 C-40.7051378 25.4005971 -36.70846177 26.76254807 -31 25 C-28.96188968 23.69971751 -28.96188968 23.69971751 -27.46484375 21.8671875 C-26.88283203 21.22523438 -26.30082031 20.58328125 -25.70117188 19.921875 C-25.11916016 19.24640625 -24.53714844 18.5709375 -23.9375 17.875 C-23.35162109 17.22273438 -22.76574219 16.57046875 -22.16210938 15.8984375 C-18.80528724 12.14296945 -15.5446611 8.3067936 -12.31274414 4.44360352 C-8.71126391 0.48311391 -5.26438206 -0.75205458 0 0 Z " fill="#FAFAFA" transform="translate(146,345)"/>
<path d="M0 0 C4.39976239 0.68022642 6.74647758 2.62840583 9.4375 6.1875 C9.9325 6.6825 9.9325 6.6825 10.4375 7.1875 C10.89448548 11.8487519 10.55414919 14.64396767 7.84399414 18.48120117 C4.89243801 22.06190345 1.4178995 25.12397919 -2 28.25 C-4.21101767 30.29400518 -6.42036892 32.33913916 -8.61669922 34.39892578 C-9.79637574 35.48328089 -11.00099394 36.5423381 -12.24658203 37.55029297 C-13.86431518 38.83583372 -13.86431518 38.83583372 -15.5625 41.1875 C-15.28078112 47.71805847 -12.77182386 53.56931385 -10.4921875 59.6328125 C-9.67027788 61.86577684 -8.84867237 64.09885314 -8.02734375 66.33203125 C-6.73032737 69.83392622 -5.4293687 73.33426701 -4.12255859 76.83251953 C-2.85999335 80.22041084 -1.61273761 83.61363574 -0.3671875 87.0078125 C0.02856476 88.05373566 0.42431702 89.09965881 0.83206177 90.17727661 C1.18928314 91.15534271 1.54650452 92.13340881 1.91455078 93.14111328 C2.23352325 93.99714142 2.55249573 94.85316956 2.88113403 95.73513794 C3.5285999 98.58905211 3.26705901 100.39872792 2.4375 103.1875 C0.64320122 105.47883445 -1.40222124 107.21107475 -3.5625 109.1875 C-6.87015543 107.80080819 -8.42868431 106.38648662 -10.40332031 103.41210938 C-10.92355774 102.63790649 -11.44379517 101.86370361 -11.97979736 101.06604004 C-12.52787048 100.22955933 -13.0759436 99.39307861 -13.640625 98.53125 C-14.21206238 97.67317749 -14.78349976 96.81510498 -15.37225342 95.93103027 C-16.57676919 94.1182194 -17.77680109 92.30242237 -18.97265625 90.48388672 C-20.80972369 87.69171973 -22.66142353 84.90971688 -24.515625 82.12890625 C-25.68316569 80.36776662 -26.84986174 78.60606668 -28.015625 76.84375 C-28.57179504 76.00726929 -29.12796509 75.17078857 -29.70098877 74.30895996 C-30.46243195 73.14765564 -30.46243195 73.14765564 -31.23925781 71.96289062 C-31.6890802 71.28053345 -32.13890259 70.59817627 -32.60235596 69.8951416 C-33.5625 68.1875 -33.5625 68.1875 -33.5625 66.1875 C-37.39873665 65.53441414 -39.46658047 65.49868388 -42.81152344 67.60107422 C-45.3187289 69.6677114 -47.63522386 71.8320552 -49.9375 74.125 C-50.75387939 74.93171143 -51.57025879 75.73842285 -52.41137695 76.56958008 C-57.45800875 81.95590414 -59.97152161 85.92291333 -59.75 93.375 C-59.67075147 94.77352219 -59.59009765 96.17196569 -59.5078125 97.5703125 C-59.5625 101.1875 -59.5625 101.1875 -61.1171875 103.8046875 C-62.8567103 105.49006173 -64.51097938 106.90730828 -66.5625 108.1875 C-68.0475 107.6925 -68.0475 107.6925 -69.5625 107.1875 C-70.77267077 104.74654728 -71.78918775 102.41106988 -72.75 99.875 C-73.15895508 98.85889648 -73.15895508 98.85889648 -73.57617188 97.82226562 C-74.92526189 94.36332054 -75.5625 91.94730229 -75.5625 88.1875 C-76.8 87.795625 -78.0375 87.40375 -79.3125 87 C-85.19457922 85.04868823 -90.86848782 82.62503821 -96.5625 80.1875 C-96.5625 76.77778316 -96.18673758 76.1094175 -94.0625 73.5625 C-90.2738377 69.82807213 -86.70482904 69.72247301 -81.625 69.6875 C-74.91097524 69.63440917 -74.91097524 69.63440917 -69.25 66.3125 C-68.00172399 64.95482452 -66.77492046 63.57728859 -65.5625 62.1875 C-64.07540529 60.79397082 -62.5882965 59.40045662 -61.10083008 58.00732422 C-56.43695745 54.07202003 -56.43695745 54.07202003 -54.21089172 48.70166016 C-54.32327097 46.14665759 -54.32327097 46.14665759 -56.00944519 44.6328125 C-56.68719498 44.19710937 -57.36494476 43.76140625 -58.06323242 43.3125 C-59.21023872 42.55646484 -59.21023872 42.55646484 -60.38041687 41.78515625 C-61.21780899 41.25792969 -62.05520111 40.73070312 -62.91796875 40.1875 C-63.77175613 39.62933594 -64.62554352 39.07117187 -65.50520325 38.49609375 C-68.24307583 36.70991999 -70.99543861 34.94780574 -73.75 33.1875 C-76.48400255 31.42340995 -79.21462426 29.65439469 -81.9412384 27.87890625 C-83.63923793 26.77502282 -85.3419304 25.6783152 -87.04985046 24.58984375 C-91.38979913 21.78698999 -95.07884347 19.01069334 -98.5625 15.1875 C-97.35290384 13.81582395 -96.11898812 12.46556391 -94.875 11.125 C-94.19050781 10.37089844 -93.50601563 9.61679687 -92.80078125 8.83984375 C-90.5625 7.1875 -90.5625 7.1875 -88.21130371 7.48731995 C-85.73714485 8.14133469 -83.35300691 8.87797999 -80.94335938 9.73803711 C-79.61673279 10.20873878 -79.61673279 10.20873878 -78.26330566 10.68894958 C-76.84906311 11.1967672 -76.84906311 11.1967672 -75.40625 11.71484375 C-74.42636108 12.06382217 -73.44647217 12.4128006 -72.43688965 12.77235413 C-70.36864756 13.50963117 -68.30099209 14.24855561 -66.23388672 14.98901367 C-63.07511591 16.120481 -59.91469032 17.24721741 -56.75390625 18.37304688 C-54.74208928 19.09087062 -52.73036731 19.80896068 -50.71875 20.52734375 C-49.77592163 20.86386459 -48.83309326 21.20038544 -47.86169434 21.54710388 C-46.97727661 21.86405716 -46.09285889 22.18101044 -45.18164062 22.50756836 C-44.40840454 22.78434921 -43.63516846 23.06113007 -42.83850098 23.34629822 C-41.19956773 23.95204206 -39.5737015 24.59357065 -37.95739746 25.25733948 C-34.78035728 26.49127847 -32.94460151 26.80870232 -29.5625 26.1875 C-27.77416643 24.48412289 -26.32534829 22.70490736 -24.859375 20.71875 C-24.43140625 20.2134375 -24.0034375 19.708125 -23.5625 19.1875 C-22.9025 19.1875 -22.2425 19.1875 -21.5625 19.1875 C-21.29244141 18.5987207 -21.02238281 18.00994141 -20.74414062 17.40332031 C-17.02118651 10.42201214 -8.30266061 0.31307167 0 0 Z " fill="#FAFAFA" transform="translate(143.5625,23.8125)"/>
<path d="M0 0 C3.66315813 0.82303 5.07387999 2.40574185 7.12109375 5.4765625 C8.28085359 9.071818 8.69395421 12.22862113 7.0703125 15.765625 C4.37909581 19.50851955 1.21771119 22.62815781 -2.06640625 25.8515625 C-2.73607422 26.52131104 -3.40574219 27.19105957 -4.09570312 27.88110352 C-8.07918174 31.83318954 -12.10293695 35.52293341 -16.75390625 38.69140625 C-18.35045148 41.2248131 -17.91127707 43.31362971 -17.42626953 46.17700195 C-16.40937989 50.44911771 -14.87963553 54.50370544 -13.31640625 58.6015625 C-12.59352967 60.54158458 -11.87088038 62.48169137 -11.1484375 64.421875 C-10.77541504 65.41477539 -10.40239258 66.40767578 -10.01806641 67.43066406 C-8.14686545 72.43390091 -6.32676241 77.45555707 -4.50390625 82.4765625 C-4.17060303 83.38937988 -3.8372998 84.30219727 -3.49389648 85.24267578 C1.70707084 99.51161977 1.70707084 99.51161977 0.12109375 103.4765625 C-1.69105671 105.70080549 -3.60512999 107.7214726 -5.87890625 109.4765625 C-6.53890625 109.4765625 -7.19890625 109.4765625 -7.87890625 109.4765625 C-9.16894531 107.89553833 -9.16894531 107.89553833 -10.64453125 105.65283203 C-11.19850586 104.81841583 -11.75248047 103.98399963 -12.32324219 103.1242981 C-13.2170459 101.75566116 -13.2170459 101.75566116 -14.12890625 100.359375 C-14.74282227 99.43188446 -15.35673828 98.50439392 -15.98925781 97.54879761 C-17.959022 94.57064959 -19.91934978 91.58643484 -21.87890625 88.6015625 C-23.84000899 85.62488869 -25.80304994 82.6495197 -27.76855469 79.67575073 C-28.99348483 77.8213359 -30.2155672 75.96503632 -31.43457031 74.10671997 C-31.98854492 73.26599945 -32.54251953 72.42527893 -33.11328125 71.55908203 C-33.60022461 70.81739777 -34.08716797 70.0757135 -34.58886719 69.31155396 C-35.88567139 67.3552703 -35.88567139 67.3552703 -37.87890625 65.4765625 C-40.95759076 65.03944558 -42.42969593 65.19478602 -45.08300781 66.85913086 C-56.12481141 75.89342344 -56.12481141 75.89342344 -62.03125 88.2109375 C-62.16571214 91.11268691 -61.99400927 93.96221626 -61.82421875 96.859375 C-61.87890625 100.4765625 -61.87890625 100.4765625 -63.43359375 103.09375 C-65.17311655 104.77912423 -66.82738563 106.19637078 -68.87890625 107.4765625 C-70.36390625 106.9815625 -70.36390625 106.9815625 -71.87890625 106.4765625 C-73.03383601 103.84931769 -74.02080494 101.3092134 -74.94140625 98.6015625 C-75.44967052 97.14462361 -75.96127252 95.68884388 -76.4765625 94.234375 C-76.69836182 93.5861377 -76.92016113 92.93790039 -77.14868164 92.27001953 C-78.45961853 89.05031294 -79.50062802 87.65009433 -82.671875 86.1953125 C-83.79207031 85.793125 -84.91226563 85.3909375 -86.06640625 84.9765625 C-90.73828699 83.26215837 -95.32805366 81.48740434 -99.87890625 79.4765625 C-98.28387705 75.32948657 -95.50603822 72.00462435 -91.87890625 69.4765625 C-89.11007429 69.3469576 -86.84147704 69.44383135 -84.12890625 69.7265625 C-78.04043971 69.91890115 -74.41856312 68.53042981 -69.73046875 64.6015625 C-68.04072246 63.00870983 -66.3816204 61.38275355 -64.75390625 59.7265625 C-63.9537207 58.91477539 -63.15353516 58.10298828 -62.32910156 57.26660156 C-59.3349966 54.07002337 -59.3349966 54.07002337 -56.87890625 50.4765625 C-57.08889425 47.41152879 -57.40296419 45.93879789 -59.63160706 43.77433777 C-60.77411171 43.01821953 -60.77411171 43.01821953 -61.93969727 42.24682617 C-62.80051407 41.66660202 -63.66133087 41.08637787 -64.54823303 40.48857117 C-65.48364426 39.88003799 -66.41905548 39.27150482 -67.3828125 38.64453125 C-68.33582748 38.00792068 -69.28884247 37.37131012 -70.27073669 36.71540833 C-73.31850596 34.68416013 -76.3795638 32.67401894 -79.44140625 30.6640625 C-81.50937196 29.29108081 -83.57644131 27.916748 -85.64257812 26.54101562 C-90.71105512 23.17044767 -95.79059922 19.81710868 -100.87890625 16.4765625 C-98.83823642 12.21040746 -96.29337623 9.74257726 -92.87890625 6.4765625 C-92.33508301 6.65832031 -91.79125977 6.84007812 -91.23095703 7.02734375 C-87.25983233 8.35303485 -83.28699212 9.67284808 -79.30859375 10.9765625 C-77.79036458 11.4765625 -76.27213542 11.9765625 -74.75390625 12.4765625 C-73.99464844 12.7240625 -73.23539063 12.9715625 -72.453125 13.2265625 C-67.81361398 14.75975719 -63.37108222 16.54549028 -58.87890625 18.4765625 C-56.33340984 19.38463207 -53.76538642 20.21570053 -51.19140625 21.0390625 C-44.23852328 23.26481196 -44.23852328 23.26481196 -41.921875 24.62890625 C-38.57793016 26.01635564 -35.38143598 26.18773605 -31.87890625 25.4765625 C-29.43760005 23.66595222 -27.78044693 22.19993604 -25.81640625 19.9765625 C-25.30255371 19.42991943 -24.78870117 18.88327637 -24.25927734 18.32006836 C-21.43442525 15.29165944 -18.71423768 12.17006622 -16.00390625 9.0390625 C-7.72384422 -0.49495123 -7.72384422 -0.49495123 0 0 Z " fill="#F9F9F9" transform="translate(145.87890625,183.5234375)"/>
<path d="M0 0 C0.66 0.33 1.32 0.66 2 1 C-4.27 7.27 -10.54 13.54 -17 20 C-17 17 -17 17 -14.55078125 14.2578125 C-13.4788468 13.20585198 -12.39904283 12.16186502 -11.3125 11.125 C-10.51682617 10.34962891 -10.51682617 10.34962891 -9.70507812 9.55859375 C-8.65200132 8.53265143 -7.59620943 7.50948794 -6.53759766 6.48925781 C-4.33152797 4.35254376 -2.16560131 2.17765475 0 0 Z " fill="#DBDBDB" transform="translate(138,346)"/>
</svg>
