<?xml version="1.0" standalone="no"?>
<!DOCTYPE svg PUBLIC "-//W3C//DTD SVG 20010904//EN"
 "http://www.w3.org/TR/2001/REC-SVG-20010904/DTD/svg10.dtd">
<svg version="1.0" xmlns="http://www.w3.org/2000/svg"
 width="1208.000000pt" height="50.000000pt" viewBox="0 0 1208.000000 223.000000"
 preserveAspectRatio="xMidYMid meet">

<g transform="translate(0.000000,223.000000) scale(0.100000,-0.100000)"
fill="#000000" stroke="none">
<path d="M7851 1699 c-21 -8 -23 -13 -17 -57 12 -78 54 -231 91 -323 19 -47
35 -89 35 -92 0 -3 -15 -1 -32 4 -47 13 -89 11 -171 -7 l-72 -17 62 -17 c77
-21 105 -39 144 -93 l30 -42 227 -63 c612 -168 965 -232 1287 -232 103 0 121
-3 165 -25 70 -36 209 -74 281 -77 l62 -3 14 42 14 42 56 -24 c85 -38 207 -74
302 -89 47 -8 88 -12 90 -10 2 2 6 26 9 53 l4 50 62 5 c33 3 196 10 362 16
415 14 702 36 1007 77 l127 17 0 36 c0 68 -67 148 -199 239 -113 77 -205 111
-330 123 -159 14 -675 -4 -1301 -47 -372 -25 -356 -27 -624 61 -127 41 -283
90 -346 109 -140 40 -430 108 -436 102 -6 -6 223 -152 379 -241 64 -38 120
-72 123 -77 3 -6 -106 -9 -288 -7 l-293 3 -47 33 c-52 35 -214 180 -370 328
-195 186 -308 243 -407 203z m147 -49 c62 -28 97 -57 302 -249 202 -189 336
-296 382 -305 40 -8 565 -8 651 1 l67 6 -102 61 c-57 34 -160 95 -230 136 -70
40 -126 75 -124 78 9 8 319 -82 563 -164 289 -96 252 -92 618 -69 127 8 349
22 495 31 146 9 407 17 580 18 l315 1 79 -29 c95 -35 235 -125 297 -193 46
-48 67 -88 55 -101 -17 -16 -477 -63 -801 -82 -182 -10 -639 -30 -707 -30 -36
0 -36 0 -43 -51 l-7 -51 -52 6 c-64 7 -221 54 -299 89 -85 38 -87 38 -106 -13
-12 -32 -23 -46 -39 -48 -33 -5 -173 33 -265 72 -81 34 -84 34 -272 40 -330 9
-684 77 -1234 235 -137 39 -176 54 -189 73 -9 13 -32 38 -51 56 l-35 32 49 -6
c28 -4 71 -15 98 -24 26 -10 47 -17 47 -16 0 1 -22 52 -49 112 -27 60 -59 141
-70 179 -21 65 -51 195 -51 216 0 16 83 9 128 -11z"/>
<path d="M210 1115 l0 -35 95 0 95 0 0 35 0 35 -95 0 -95 0 0 -35z"/>
<path d="M780 1115 l0 -35 190 0 190 0 0 35 0 35 -190 0 -190 0 0 -35z"/>
<path d="M1540 1115 l0 -35 190 0 190 0 0 35 0 35 -190 0 -190 0 0 -35z"/>
<path d="M2310 1115 l0 -35 185 0 185 0 0 35 0 35 -185 0 -185 0 0 -35z"/>
<path d="M3070 1115 l0 -35 185 0 185 0 0 35 0 35 -185 0 -185 0 0 -35z"/>
<path d="M3830 1115 l0 -35 185 0 185 0 0 35 0 35 -185 0 -185 0 0 -35z"/>
<path d="M4590 1115 l0 -35 185 0 185 0 0 35 0 35 -185 0 -185 0 0 -35z"/>
<path d="M5350 1115 l0 -35 185 0 185 0 0 35 0 35 -185 0 -185 0 0 -35z"/>
<path d="M6110 1115 l0 -35 190 0 190 0 0 35 0 35 -190 0 -190 0 0 -35z"/>
<path d="M6870 1115 l0 -35 95 0 95 0 0 35 0 35 -95 0 -95 0 0 -35z"/>
</g>
</svg>
